<svg width="107" height="108" viewBox="0 0 107 108" fill="none" xmlns="http://www.w3.org/2000/svg">
<path fill-rule="evenodd" clip-rule="evenodd" d="M15.7277 16.4054C25.3438 6.7895 38.642 0.833313 53.3222 0.833313C68.0023 0.833313 81.3006 6.7895 90.9166 16.4054L87.4989 19.8231L90.9166 16.4055C100.533 26.0216 106.489 39.3198 106.489 54C106.489 68.6801 100.533 81.9784 90.9166 91.5944C81.3006 101.21 68.0023 107.167 53.3222 107.167C38.642 107.167 25.3438 101.21 15.7277 91.5944L19.1453 88.1767L15.7277 91.5944C6.1117 81.9784 0.155518 68.6801 0.155518 54C0.155518 39.3198 6.11171 26.0216 15.7276 16.4055L15.7277 16.4054ZM53.3222 10.5C41.3088 10.5 30.4404 15.3636 22.563 23.2408C14.6857 31.1182 9.82218 41.9866 9.82218 54C9.82218 66.0134 14.6858 76.8818 22.563 84.759C30.4404 92.6363 41.3088 97.5 53.3222 97.5C65.3356 97.5 76.2039 92.6363 84.0812 84.759C91.9585 76.8817 96.8222 66.0134 96.8222 54C96.8222 41.9866 91.9585 31.1182 84.0812 23.2408C76.204 15.3636 65.3356 10.5 53.3222 10.5ZM80.9065 36.0823C82.7941 37.9698 82.7941 41.0301 80.9065 42.9177L51.9065 71.9176C50.019 73.8052 46.9587 73.8052 45.0712 71.9176L30.5712 57.4177C28.6836 55.5301 28.6836 52.4698 30.5712 50.5823C32.4587 48.6948 35.519 48.6948 37.4065 50.5823L48.4888 61.6646L74.0712 36.0823C75.9587 34.1948 79.019 34.1948 80.9065 36.0823Z" fill="#094D69"/>
</svg>
