<svg width="42" height="40" viewBox="0 0 42 40" fill="none" xmlns="http://www.w3.org/2000/svg">
<path fill-rule="evenodd" clip-rule="evenodd" d="M20.2108 3.37912C25.7195 -1.2433 33.9325 -0.524766 38.5549 4.98405C43.1774 10.4928 42.4588 18.7058 36.95 23.3282L21.7887 36.05C16.2799 40.6724 8.067 39.9539 3.44455 34.4451C-1.17786 28.9363 -0.459336 20.7234 5.04945 16.101L20.2108 3.37912ZM18.1047 16.1484C17.3651 15.267 16.051 15.152 15.1696 15.8916C14.2882 16.6312 14.1732 17.9452 14.9128 18.8266L20.8895 25.9495C21.629 26.8309 22.9431 26.9458 23.8245 26.2063C24.7059 25.4667 24.8209 24.1526 24.0813 23.2712L18.1047 16.1484Z" fill="#D9D9D9"/>
</svg>
