<svg width="50" height="50" viewBox="0 0 50 50" fill="none" xmlns="http://www.w3.org/2000/svg">
<path fill-rule="evenodd" clip-rule="evenodd" d="M2.08325 24.9999C2.08325 12.3434 12.3434 2.08325 24.9999 2.08325C37.6564 2.08325 47.9166 12.3434 47.9166 24.9999C47.9166 37.6564 37.6564 47.9166 24.9999 47.9166C12.3434 47.9166 2.08325 37.6564 2.08325 24.9999ZM27.0919 12.5001C27.092 11.3495 26.1593 10.4167 25.0088 10.4166C23.8582 10.4165 22.9253 11.3491 22.9252 12.4997L22.924 25.0089C22.9239 25.5615 23.1434 26.0915 23.5342 26.4822L32.3669 35.3149C33.1805 36.1285 34.4995 36.1285 35.3131 35.3149C36.1267 34.5013 36.1267 33.1822 35.3131 32.3687L27.0907 24.1462L27.0919 12.5001Z" fill="white"/>
</svg>
